# xmcd
#
# Track frame offsets:
#	150
#	13416
#	37932
#	57206
#	77968
#	105189
#	122731
#	144542
#
# Disc length: 2161 seconds
#
# Revision: 1
# Processed by: cddbd v1.4PL0 Copyright (c) Steve Scherf et al.
# Submitted via: CDmax 1.8
#
DISCID=62086f08
DTITLE=Teddy Pendegrass - It's time for love
DYEAR=1981
DGENRE=R and B Soul
TTITLE0=I can't live without your love
TTITLE1=You're my latest, my greatest inspiration
TTITLE2=9 time out of 10
TTITLE3=Keep on lovin' me
TTITLE4=It's time for love
TTITLE5=She's over me
TTITLE6=I can't leave your love alone
TTITLE7=You must live on
EXTD=Transferred from the 33rpm album in Barry Alexander's record collection o
EXTD=n 11-24-01\n\ncontact Barry at barryal@pacbell.net
EXTT0=
EXTT1=
EXTT2=
EXTT3=
EXTT4=
EXTT5=
EXTT6=
EXTT7=
PLAYORDER=
